HIERARCHY
ROOT Hips
{
  OFFSET 5.84602e-005 68.8428 3.50346
  CHANNELS 6 Xposition Yposition Zposition Zrotation Xrotation Yrotation
  JOINT Spine
  {
    OFFSET 0 8.597 -4.6522
    CHANNELS 3 Zrotation Xrotation Yrotation
    JOINT Spine1
    {
      OFFSET 0 7.8454 0.4098
      CHANNELS 3 Zrotation Xrotation Yrotation
      JOINT Spine2
      {
        OFFSET 0 9.7078 -2.1609
        CHANNELS 3 Zrotation Xrotation Yrotation
        JOINT Neck
        {
          OFFSET 0 21.8761 -0.4549
          CHANNELS 3 Zrotation Xrotation Yrotation
          JOINT Head
          {
            OFFSET 0 12.3537 3.3602
            CHANNELS 3 Zrotation Xrotation Yrotation
            End Site
            {
              OFFSET 0.0001 18.9506 0.5657
            }
          }
        }
        JOINT LeftShoulder
        {
          OFFSET 2.2086 21.1115 7.2329
          CHANNELS 3 Zrotation Xrotation Yrotation
          JOINT LeftArm
          {
            OFFSET 13.1193 3.0282 -4.8998
            CHANNELS 3 Zrotation Xrotation Yrotation
            JOINT LeftForeArm
            {
              OFFSET 27.4081 -0.0973053 -0.2375
              CHANNELS 3 Zrotation Xrotation Yrotation
              JOINT LeftHand
              {
                OFFSET 22.8641 0.0662994 -0.1369
                CHANNELS 3 Zrotation Xrotation Yrotation
                JOINT LeftHandIndex1
                {
                  OFFSET 8.8614 0.775009 2.4612
                  CHANNELS 3 Zrotation Xrotation Yrotation
                  JOINT LeftHandIndex2
                  {
                    OFFSET 3.3146 -0.808304 0.5841
                    CHANNELS 3 Zrotation Xrotation Yrotation
                    JOINT LeftHandIndex3
                    {
                      OFFSET 2.2628 -0.552002 0.3989
                      CHANNELS 3 Zrotation Xrotation Yrotation
                      End Site
                      {
                        OFFSET 1.6102 -0.4807 0.2612
                      }
                    }
                  }
                }
                JOINT LeftHandMiddle1
                {
                  OFFSET 8.9937 0.895004 0.2143
                  CHANNELS 3 Zrotation Xrotation Yrotation
                  JOINT LeftHandMiddle2
                  {
                    OFFSET 4.0984 0.0113983 -0.0242
                    CHANNELS 3 Zrotation Xrotation Yrotation
                    JOINT LeftHandMiddle3
                    {
                      OFFSET 2.2716 0.00689697 -0.0138001
                      CHANNELS 3 Zrotation Xrotation Yrotation
                      End Site
                      {
                        OFFSET 2.0404 -0.1441 0.0027
                      }
                    }
                  }
                }
                JOINT LeftHandRing1
                {
                  OFFSET 8.5234 0.597198 -2.0164
                  CHANNELS 3 Zrotation Xrotation Yrotation
                  JOINT LeftHandRing2
                  {
                    OFFSET 3.7188 -0.188293 -0.2328
                    CHANNELS 3 Zrotation Xrotation Yrotation
                    JOINT LeftHandRing3
                    {
                      OFFSET 2.1191 -0.106598 -0.1332
                      CHANNELS 3 Zrotation Xrotation Yrotation
                      End Site
                      {
                        OFFSET 1.8737 -0.2304 -0.0886
                      }
                    }
                  }
                }
                JOINT LeftHandPinky1
                {
                  OFFSET 7.9094 -0.601089 -3.4825
                  CHANNELS 3 Zrotation Xrotation Yrotation
                  JOINT LeftHandPinky2
                  {
                    OFFSET 2.2874 -0.477005 -0.6314
                    CHANNELS 3 Zrotation Xrotation Yrotation
                    JOINT LeftHandPinky3
                    {
                      OFFSET 1.6774 -0.349396 -0.4633
                      CHANNELS 3 Zrotation Xrotation Yrotation
                      End Site
                      {
                        OFFSET 1.4888 -0.4091 -0.3416
                      }
                    }
                  }
                }
                JOINT LeftHandThumb1
                {
                  OFFSET 1.833 -1.3875 1.3896
                  CHANNELS 3 Zrotation Xrotation Yrotation
                  JOINT LeftHandThumb2
                  {
                    OFFSET 3.4129 -1.121 2.5732
                    CHANNELS 3 Zrotation Xrotation Yrotation
                    JOINT LeftHandThumb3
                    {
                      OFFSET 2.2474 -0.804199 1.6192
                      CHANNELS 3 Zrotation Xrotation Yrotation
                      End Site
                      {
                        OFFSET 1.6527 -0.5689 1.1317
                      }
                    }
                  }
                }
              }
            }
          }
        }
        JOINT RightShoulder
        {
          OFFSET -2.2086 21.1115 7.2329
          CHANNELS 3 Zrotation Xrotation Yrotation
          JOINT RightArm
          {
            OFFSET -13.1216 3.0287 -4.9007
            CHANNELS 3 Zrotation Xrotation Yrotation
            JOINT RightForeArm
            {
              OFFSET -27.4081 -0.0973053 -0.2375
              CHANNELS 3 Zrotation Xrotation Yrotation
              JOINT RightHand
              {
                OFFSET -22.8641 0.0664063 -0.1369
                CHANNELS 3 Zrotation Xrotation Yrotation
                JOINT RightHandIndex1
                {
                  OFFSET -8.8614 0.774994 2.4612
                  CHANNELS 3 Zrotation Xrotation Yrotation
                  JOINT RightHandIndex2
                  {
                    OFFSET -3.3146 -0.808304 0.5841
                    CHANNELS 3 Zrotation Xrotation Yrotation
                    JOINT RightHandIndex3
                    {
                      OFFSET -2.2628 -0.552002 0.3989
                      CHANNELS 3 Zrotation Xrotation Yrotation
                      End Site
                      {
                        OFFSET -1.6102 -0.4807 0.2612
                      }
                    }
                  }
                }
                JOINT RightHandMiddle1
                {
                  OFFSET -8.9937 0.894989 0.2143
                  CHANNELS 3 Zrotation Xrotation Yrotation
                  JOINT RightHandMiddle2
                  {
                    OFFSET -4.0984 0.0113983 -0.0242
                    CHANNELS 3 Zrotation Xrotation Yrotation
                    JOINT RightHandMiddle3
                    {
                      OFFSET -2.2716 0.00691223 -0.0138001
                      CHANNELS 3 Zrotation Xrotation Yrotation
                      End Site
                      {
                        OFFSET -2.0404 -0.1441 0.0027
                      }
                    }
                  }
                }
                JOINT RightHandRing1
                {
                  OFFSET -8.5234 0.597198 -2.0164
                  CHANNELS 3 Zrotation Xrotation Yrotation
                  JOINT RightHandRing2
                  {
                    OFFSET -3.7188 -0.188309 -0.2328
                    CHANNELS 3 Zrotation Xrotation Yrotation
                    JOINT RightHandRing3
                    {
                      OFFSET -2.1191 -0.106598 -0.1332
                      CHANNELS 3 Zrotation Xrotation Yrotation
                      End Site
                      {
                        OFFSET -1.8737 -0.2304 -0.0886
                      }
                    }
                  }
                }
                JOINT RightHandPinky1
                {
                  OFFSET -7.9094 -0.601105 -3.4825
                  CHANNELS 3 Zrotation Xrotation Yrotation
                  JOINT RightHandPinky2
                  {
                    OFFSET -2.2874 -0.477005 -0.6314
                    CHANNELS 3 Zrotation Xrotation Yrotation
                    JOINT RightHandPinky3
                    {
                      OFFSET -1.6774 -0.349396 -0.4633
                      CHANNELS 3 Zrotation Xrotation Yrotation
                      End Site
                      {
                        OFFSET -1.4888 -0.4091 -0.3416
                      }
                    }
                  }
                }
                JOINT RightHandThumb1
                {
                  OFFSET -1.833 -1.38751 1.3896
                  CHANNELS 3 Zrotation Xrotation Yrotation
                  JOINT RightHandThumb2
                  {
                    OFFSET -3.41299 -1.12099 2.5732
                    CHANNELS 3 Zrotation Xrotation Yrotation
                    JOINT RightHandThumb3
                    {
                      OFFSET -2.24741 -0.804108 1.6192
                      CHANNELS 3 Zrotation Xrotation Yrotation
                      End Site
                      {
                        OFFSET -1.6527 -0.5689 1.1317
                      }
                    }
                  }
                }
              }
            }
          }
        }
      }
    }
  }
  JOINT RightUpLeg
  {
    OFFSET -9.1966 3.8861 -0.7581
    CHANNELS 3 Zrotation Xrotation Yrotation
    JOINT RightLeg
    {
      OFFSET -0.7359 -41.0265 0
      CHANNELS 3 Zrotation Xrotation Yrotation
      JOINT RightFoot
      {
        OFFSET 0 -40.2855 0
        CHANNELS 3 Zrotation Xrotation Yrotation
        JOINT RightToeBase
        {
          OFFSET 0 -5.6122 11.7359
          CHANNELS 3 Zrotation Xrotation Yrotation
          End Site
          {
            OFFSET 0 0 7.8731
          }
        }
      }
    }
  }
  JOINT LeftUpLeg
  {
    OFFSET 9.1965 3.8864 -0.7581
    CHANNELS 3 Zrotation Xrotation Yrotation
    JOINT LeftLeg
    {
      OFFSET 0.7359 -41.0268 0
      CHANNELS 3 Zrotation Xrotation Yrotation
      JOINT LeftFoot
      {
        OFFSET 0 -40.2855 0
        CHANNELS 3 Zrotation Xrotation Yrotation
        JOINT LeftToeBase
        {
          OFFSET 0 -5.6122 11.7359
          CHANNELS 3 Zrotation Xrotation Yrotation
          End Site
          {
            OFFSET 0 0 7.8731
          }
        }
      }
    }
  }
}
MOTION
Frames:	4
Frame Time:	0.0333333
39.2425 39.6214 18.5177 -179.999 58.9984 12.9916 -0.0579724 7.86186 -2.86082 0.2888 15.7166 -5.79664 0.2888 15.7166 -5.79664 -19.0667 13.2569 4.53197 -1.42605 -1.47661 10.0577 -4.28046 1.4754 1.75592 -54.8557 54.9347 3.1669 13.4026 33.7116 -22.4619 3.29974 -5.57434 4.45039 -1.56759e-008 2.49667e-007 4.034e-006 1.29763e-008 1.10024e-007 1.46438e-006 -1.56759e-008 2.49667e-007 4.034e-006 -1.56759e-008 2.49667e-007 4.034e-006 -0.0146321 -8.87185e-005 7.46858e-006 1.17578e-008 1.0983e-007 1.46439e-006 -1.56759e-008 2.49667e-007 4.034e-006 -0.0187375 -0.00117415 6.87985e-005 1.14295e-008 1.09687e-007 1.4644e-006 -1.56759e-008 2.49667e-007 4.034e-006 -0.0122915 -0.0032531 0.000674952 -1.49689e-008 2.4939e-007 4.034e-006 -1.56759e-008 2.49667e-007 4.034e-006 1.29763e-008 1.10024e-007 1.46438e-006 -1.56759e-008 2.49667e-007 4.034e-006 19.3594 -0.559158 1.20403 39.2957 54.9902 -3.31142 25.3201 -29.4318 151.025 46.7132 -9.73177 -0.709551 3.18055e-015 -3.18055e-015 -0 4.37326e-015 -3.18055e-015 -0 1.98785e-015 3.18055e-015 1.59028e-015 3.18055e-015 -3.18055e-015 -0 0.0149933 -9.0628e-005 -1.82462e-006 -5.56597e-015 0 -1.59028e-015 3.18055e-015 -3.18055e-015 -0 0.0189651 -0.00118665 -5.96369e-005 1.19271e-015 -3.18055e-015 -0 3.18055e-015 -3.18055e-015 -0 0.0122925 -0.00325234 -0.000678161 3.97569e-015 3.18055e-015 -3.18055e-015 3.18055e-015 -3.18055e-015 -0 4.37326e-015 -3.18055e-015 -0 1.98785e-015 3.18055e-015 1.59028e-015 55.4702 -73.9616 37.8799 -2.03392 36.3618 42.0031 -26.4052 -2.12483 -8.0208 -2.10014e-007 -6.6767e-007 -3.23944e-006 53.7205 -80.8514 84.6241 2.03561 37.5175 -41.9573 24.8321 -2.70249 7.2108 1.71452e-015 -3.97569e-016 3.97569e-016 
39.2422 39.621 18.5208 -179.999 58.9984 12.9916 -0.0713264 7.77558 -2.86206 0.257208 15.5448 -5.79554 0.25721 15.5448 -5.79554 -18.9713 13.2645 4.51005 -1.42765 -1.21776 9.28158 -4.51468 1.71954 2.05997 -54.7037 54.9355 3.142 13.4026 33.7116 -22.4619 3.20148 -5.27763 4.41059 -7.95139e-016 1.59028e-015 3.18055e-015 -1.26294e-007 1.71927e-007 -5.83752e-009 -8.06609e-008 4.70149e-007 -1.55247e-008 -7.95139e-016 1.59028e-015 3.18055e-015 -0.0145815 -8.82143e-005 4.08918e-006 -8.06611e-008 4.70151e-007 -1.54648e-008 -7.95139e-016 1.59028e-015 3.18055e-015 -0.0187395 -0.00117475 5.9891e-005 -8.06611e-008 4.70151e-007 -1.5447e-008 -7.95139e-016 1.59028e-015 3.18055e-015 -0.0122767 -0.00324963 0.000678991 -8.06587e-008 4.70151e-007 -1.54721e-008 -7.95139e-016 1.59028e-015 3.18055e-015 -1.26294e-007 1.71927e-007 -5.83752e-009 -8.06609e-008 4.70149e-007 -1.55247e-008 19.3594 -0.559157 1.20402 39.2957 54.9902 -3.31142 25.4348 -29.3353 151.259 46.7132 -9.73177 -0.709545 -3.97569e-016 3.18055e-015 -0 5.96354e-015 3.18055e-015 -0 1.19271e-015 0 3.18055e-015 -3.97569e-016 3.18055e-015 -0 0.0150269 -9.18982e-005 -9.72411e-007 4.77083e-015 -3.18055e-015 -0 -3.97569e-016 3.18055e-015 -0 0.018987 -0.00118858 -5.94724e-005 9.70029e-007 -1.17325e-006 -2.87042e-007 -3.97569e-016 3.18055e-015 -0 0.0122472 -0.00324302 -0.000674238 -4.37326e-015 -6.36111e-015 1.59028e-015 -3.97569e-016 3.18055e-015 -0 5.96354e-015 3.18055e-015 -0 1.19271e-015 0 3.18055e-015 54.8913 -73.8451 37.2782 -2.03352 36.3535 42.0038 -26.4018 -2.12178 -8.02001 1.68967e-015 9.93923e-017 9.54166e-015 52.6017 -80.7155 83.4906 2.03558 37.5173 -41.9573 24.8324 -2.70387 7.21111 1.18308e-006 -8.00963e-008 -3.53613e-007 
39.2419 39.6206 18.5239 -179.999 58.9984 12.9916 -0.0846541 7.6893 -2.86318 0.225598 15.3731 -5.79421 0.225599 15.3731 -5.79421 -18.876 13.2714 4.48815 -1.42572 -0.958921 8.50558 -4.7502 1.96242 2.36506 -54.5517 54.9362 3.11713 13.4026 33.7116 -22.4619 3.10348 -4.98086 4.37125 -7.95139e-016 -7.95139e-016 6.36111e-015 -1.59028e-015 -9.93923e-016 3.18055e-015 -1.19271e-015 -9.93923e-016 3.18055e-015 -7.95139e-016 -7.95139e-016 6.36111e-015 -0.0146261 -8.86149e-005 4.53815e-006 -3.97569e-016 7.95139e-016 3.18055e-015 -7.95139e-016 -7.95139e-016 6.36111e-015 -0.0187627 -0.00117618 6.04164e-005 -3.97569e-016 1.98785e-016 -6.36111e-015 -7.95139e-016 -7.95139e-016 6.36111e-015 -0.0122614 -0.00324558 0.000674843 -3.97569e-016 2.98177e-015 6.36111e-015 -7.95139e-016 -7.95139e-016 6.36111e-015 -1.59028e-015 -9.93923e-016 3.18055e-015 -1.19271e-015 -9.93923e-016 3.18055e-015 19.3594 -0.559172 1.20403 39.2956 54.9902 -3.3114 25.5489 -29.2384 151.492 46.7132 -9.73177 -0.709545 2.78299e-015 3.18055e-015 -1.59028e-015 1.08682e-006 -2.7611e-006 -6.02095e-007 1.72691e-006 -4.95431e-009 -1.3871e-007 2.78299e-015 3.18055e-015 -1.59028e-015 0.0149886 -9.32941e-005 1.8694e-008 1.72695e-006 -4.97271e-009 -1.3871e-007 2.78299e-015 3.18055e-015 -1.59028e-015 0.0190262 -0.00119432 -6.07822e-005 2.69859e-006 -1.12475e-006 -3.76343e-007 2.78299e-015 3.18055e-015 -1.59028e-015 0.0123225 -0.00326546 -0.000682261 1.72694e-006 -4.96778e-009 -1.3876e-007 2.78299e-015 3.18055e-015 -1.59028e-015 1.08682e-006 -2.7611e-006 -6.02095e-007 1.72691e-006 -4.95431e-009 -1.3871e-007 54.3211 -73.7271 36.6853 -2.03311 36.3454 42.0044 -26.3985 -2.11879 -8.01924 -9.35505e-007 -1.73705e-007 5.28011e-008 51.5155 -80.5762 82.3898 2.03556 37.517 -41.9572 24.8327 -2.70524 7.21142 -3.33506e-006 1.96469e-008 -2.72844e-007 
39.2416 39.6203 18.5271 -179.999 58.9984 12.9916 -0.09801 7.60309 -2.86414 0.193975 15.2014 -5.79265 0.193975 15.2014 -5.79265 -18.7808 13.2787 4.46637 -1.4203 -0.700183 7.72969 -4.98703 2.20402 2.67115 -54.3997 54.9369 3.09222 13.4026 33.7116 -22.4618 3.00572 -4.68404 4.33245 -3.97569e-016 3.97569e-016 3.18055e-015 -7.95139e-016 1.98785e-016 3.18055e-015 -0 -1.98785e-016 -0 -3.97569e-016 3.97569e-016 3.18055e-015 -0.0145951 -8.81966e-005 1.45494e-005 -7.95139e-016 -1.39149e-015 -3.18055e-015 -3.97569e-016 3.97569e-016 3.18055e-015 -0.0187567 -0.00117565 6.48614e-005 0 0 -3.18055e-015 -3.97569e-016 3.97569e-016 3.18055e-015 -0.0122891 -0.00325354 0.000679029 -1.19271e-015 1.19271e-015 -0 -3.97569e-016 3.97569e-016 3.18055e-015 -7.95139e-016 1.98785e-016 3.18055e-015 -0 -1.98785e-016 -0 19.3594 -0.559186 1.20404 39.2956 54.9902 -3.31142 25.6623 -29.141 151.724 46.7132 -9.73176 -0.709556 -1.72751e-006 9.19925e-009 1.30968e-007 -1.65671e-006 8.17156e-008 -2.8321e-007 -1.72751e-006 9.19925e-009 1.30968e-007 -1.72751e-006 9.19925e-009 1.30968e-007 0.0149882 -9.02611e-005 1.94677e-006 -1.72755e-006 9.21665e-009 1.30968e-007 -1.72751e-006 9.19925e-009 1.30968e-007 0.0189551 -0.00118847 -5.84764e-005 -1.72756e-006 9.22326e-009 1.30985e-007 -1.72751e-006 9.19925e-009 1.30968e-007 0.0122707 -0.00325159 -0.0006747 -1.72754e-006 9.21191e-009 1.31018e-007 -1.72751e-006 9.19925e-009 1.30968e-007 -1.65671e-006 8.17156e-008 -2.8321e-007 -1.72751e-006 9.19925e-009 1.30968e-007 53.7592 -73.6074 36.1007 -2.03269 36.3371 42.005 -26.395 -2.11572 -8.01845 -2.64011e-017 -3.09825e-016 -0 50.4612 -80.4334 81.3209 2.03557 37.5166 -41.9572 24.8329 -2.70659 7.21172 -3.99752e-009 -2.08693e-007 4.43837e-008 
